<svg xmlns="http://www.w3.org/2000/svg" width="1046.295" height="717.776" viewBox="0 0 1046.295 717.776">
  <path id="pitline" d="M655.055,1659.691l.905,1.255,85.366,118.32,178.9-26.043v70.258l279.753-18.877.129.353,43.609,119.689,98.645,73.184-.386.409-98.177,104.2v178.8l-180.645,19.235v76.986l-.56-.068L722.474,2336l-239.689,41.437-.183-.185L349.212,2242.7l.026-.237,15.446-140.154-68.613-177.6.417-.2,127.38-61.072V1753.3H655.055Zm85.815,120.652-.177-.246-84.638-117.311V1754.3H424.868v109.764l-.284.136-127.247,61.008L365.7,2102.178l-.013.121-15.433,140.038,132.87,134.028,239.321-41.373.073.009,339.636,41.337v-76.756l.447-.047,180.2-19.188v-178.3l.136-.145,97.927-103.939-97.982-72.692-.051-.141L1199.3,1805.651l-280.071,18.9v-70.171Z" transform="translate(-296.071 -1659.691)" fill="#945934" opacity="0.54"/>
</svg>
