
<svg width="32" height="38" viewBox="0 0 32 38" fill="none" xmlns="http://www.w3.org/2000/svg">
<g filter="url(#filter0_d_1_1365)">
<path fill-rule="evenodd" clip-rule="evenodd" d="M10.8505 2.66667H21.1379C25.4224 2.66667 27.9884 5.26858 28 9.61295V22.387C28 26.7314 25.4456 29.3333 21.1495 29.3333H17.3411C16.8527 29.2787 16.483 28.8603 16.483 28.362C16.483 27.8638 16.8527 27.4453 17.3411 27.3907H21.1379C24.4122 27.3907 26.061 25.7071 26.061 22.387V9.61295C26.061 6.29286 24.4122 4.60927 21.1379 4.60927H10.8505C7.5762 4.60927 5.91582 6.29286 5.91582 9.61295V22.387C5.91582 25.7071 7.5762 27.3907 10.8505 27.3907C11.3389 27.4453 11.7086 27.8638 11.7086 28.362C11.7086 28.8603 11.3389 29.2787 10.8505 29.3333C6.56604 29.3333 4 26.7314 4 22.387V9.61295C4 5.25681 6.56604 2.66667 10.8505 2.66667ZM11.1872 11.3319H14.8447C15.3331 11.2773 15.7028 10.8588 15.7028 10.3606C15.7028 9.86232 15.3331 9.44386 14.8447 9.38926H11.1872C10.6988 9.44386 10.3291 9.86232 10.3291 10.3606C10.3291 10.8588 10.6988 11.2773 11.1872 11.3319ZM20.7895 16.9713H11.1872H11.1756C10.6872 16.9167 10.3175 16.4982 10.3175 16C10.3175 15.5018 10.6872 15.0833 11.1756 15.0287H20.7895C21.157 14.9876 21.5152 15.1632 21.7116 15.4808C21.908 15.7983 21.908 16.2017 21.7116 16.5192C21.5152 16.8368 21.157 17.0124 20.7895 16.9713ZM20.7896 22.6107H11.1872H11.1756C10.6498 22.6107 10.2235 22.1785 10.2235 21.6453C10.2235 21.1121 10.6498 20.6799 11.1756 20.6799H20.7896C21.3154 20.6799 21.7417 21.1121 21.7417 21.6453C21.7417 22.1785 21.3154 22.6107 20.7896 22.6107Z" fill="#ffa100"/>
</g>
<defs>
<filter id="filter0_d_1_1365" x="-4" y="0" width="40" height="40" filterUnits="userSpaceOnUse" color-interpolation-filters="sRGB">
<feFlood flood-opacity="0" result="BackgroundImageFix"/>
<feColorMatrix in="SourceAlpha" type="matrix" values="0 0 0 0 0 0 0 0 0 0 0 0 0 0 0 0 0 0 127 0" result="hardAlpha"/>
<feOffset dy="4"/>
<feGaussianBlur stdDeviation="2"/>
<feComposite in2="hardAlpha" operator="out"/>
<feColorMatrix type="matrix" values="0 0 0 0 0 0 0 0 0 0 0 0 0 0 0 0 0 0 0.25 0"/>
<feBlend mode="normal" in2="BackgroundImageFix" result="effect1_dropShadow_1_1365"/>
<feBlend mode="normal" in="SourceGraphic" in2="effect1_dropShadow_1_1365" result="shape"/>
</filter>
</defs>
</svg>
